nColumns=19
nRows=120
DataType=double
version=3
OpenSimVersion=4.1
endheader
time	ground_force_1_vx	ground_force_1_vy	ground_force_1_vz	ground_force_1_px	ground_force_1_py	ground_force_1_pz	ground_force_1_mx	ground_force_1_my	ground_force_1_mz	ground_force_2_vx	ground_force_2_vy	ground_force_2_vz	ground_force_2_px	ground_force_2_py	ground_force_2_pz	ground_force_2_mx	ground_force_2_my	ground_force_2_mz
0.008333	0	0	0	0.000325773	0	-0.000535517	0	0	0	0	0	0	0.000325773	0	-0.000535517	0	0	0
0.016667	0	0	0	0.000325773	0	-0.000535518	0	0	0	0	0	0	0.000325773	0	-0.000535518	0	0	0
0.025	0	0	0	0.000325771	0	-0.000535519	0	0	0	0	0	0	0.000325771	0	-0.000535519	0	0	0
0.033333	0	0	0	0.000325767	0	-0.000535521	0	0	0	0	0	0	0.000325768	0	-0.000535521	0	0	0
0.041667	0	0	0	0.000325763	0	-0.000535523	0	0	0	0	0	0	0.000325763	0	-0.000535523	0	0	0
0.05	0	0	0	0.000325756	0	-0.000535526	0	0	0	0	0	0	0.000325757	0	-0.000535526	0	0	0
0.058333	0	0	0	0.000325749	0	-0.00053553	0	0	0	0	0	0	0.00032575	0	-0.00053553	0	0	0
0.066667	0	0	0	0.00032574	0	-0.000535535	0	0	0	0	0	0	0.000325741	0	-0.000535535	0	0	0
0.075	0	0	0	0.00032573	0	-0.000535541	0	0	0	0	0	0	0.000325731	0	-0.00053554	0	0	0
0.083333	0	0	0	0.000325718	0	-0.000535547	0	0	0	0	0	0	0.00032572	0	-0.000535546	0	0	0
0.091667	0	0	0	0.000325705	0	-0.000535554	0	0	0	0	0	0	0.000325707	0	-0.000535553	0	0	0
0.1	-0.850783	11.5326	-0.515635	0.703681	0	-0.144051	-0	0.661179	-0	0	0	0	0.000325693	0	-0.00053556	0	0	0
0.108333	-7.28121	28.3289	-4.4122	0.862251	0	-0.270398	-0	0.550959	-0	0	0	0	0.000325678	0	-0.000535568	0	0	0
0.116667	-28.2797	81.2104	-10.1338	0.913588	0	-0.334365	-0	0.270118	-0	0	0	0	0.000325662	0	-0.000535577	0	0	0
0.125	-68.0744	219.383	-15.0717	0.92361	0	-0.355768	0	-0.498948	0	0	0	0	0.000325644	0	-0.000535587	0	0	0
0.133333	-116.881	492.344	-13.8283	0.925547	0	-0.360679	0	-1.88466	0	0	0	0	0.000325625	0	-0.000535597	0	0	0
0.141667	-153.529	865.608	-1.88164	0.923048	0	-0.359675	0	-3.70491	0	0	0	0	0.000325604	0	-0.000535608	0	0	0
0.15	-171.007	1187.55	16.7929	0.914785	0	-0.356912	0	-5.48596	0	0	0	0	0.000325583	0	-0.00053562	0	0	0
0.158333	-189.602	1350.31	27.6576	0.90094	0	-0.354351	0	-6.64719	0	0	0	0	0.00032556	0	-0.000535632	0	0	0
0.166667	-221.458	1407.66	18.6065	0.881692	0	-0.353209	0	-6.76945	0	0	0	0	0.000325536	0	-0.000535645	0	0	0
0.175	-242.391	1463.82	-4.75263	0.856162	0	-0.352913	0	-5.77812	0	0	0	0	0.00032551	0	-0.000535659	0	0	0
0.183333	-228.721	1557.78	-24.2697	0.825224	0	-0.351081	0	-3.92077	0	0	0	0	0.000325483	0	-0.000535673	0	0	0
0.191667	-185.859	1660.73	-29.9164	0.792919	0	-0.347326	0	-1.59118	0	0	0	0	0.000325455	0	-0.000535688	0	0	0
0.2	-129.579	1726.58	-28.3763	0.761971	0	-0.343736	-0	0.832221	-0	0	0	0	0.000325426	0	-0.000535704	0	0	0
0.208333	-67.9157	1731.95	-30.1548	0.731254	0	-0.341833	-0	3.03083	-0	0	0	0	0.000325395	0	-0.000535721	0	0	0
0.216667	-2.38378	1682.33	-35.3802	0.698754	0	-0.340905	-0	4.72221	-0	0	0	0	0.000325363	0	-0.000535738	0	0	0
0.225	63.6075	1594.06	-36.3057	0.664426	0	-0.339514	-0	5.66975	-0	0	0	0	0.00032533	0	-0.000535756	0	0	0
0.233333	125.159	1476.05	-28.6638	0.629128	0	-0.337622	-0	5.74783	-0	0	0	0	0.000325295	0	-0.000535774	0	0	0
0.241667	177.555	1330.16	-15.1915	0.593776	0	-0.336331	-0	5.00135	-0	0	0	0	0.00032526	0	-0.000535793	0	0	0
0.25	214.139	1157.49	-0.440098	0.559485	0	-0.336159	-0	3.64419	-0	0	0	0	0.000325223	0	-0.000535813	0	0	0
0.258333	231.408	963.236	12.8546	0.526965	0	-0.336386	-0	1.99754	-0	0	0	0	0.000325184	0	-0.000535834	0	0	0
0.266667	231.344	758.287	22.9923	0.496407	0	-0.33601	-0	0.401461	-0	0	0	0	0.000325145	0	-0.000535855	0	0	0
0.275	215.686	557.77	28.5297	0.467699	0	-0.334225	0	-0.869127	0	0	0	0	0.000325104	0	-0.000535877	0	0	0
0.283333	182.336	377.541	28.82	0.440579	0	-0.330255	0	-1.66263	0	0	0	0	0.000325062	0	-0.000535899	0	0	0
0.291667	133.889	230.475	24.5045	0.414024	0	-0.323662	0	-1.97025	0	0	0	0	0.000325019	0	-0.000535922	0	0	0
0.3	82.865	124.424	17.6054	0.387032	0	-0.313865	0	-1.90443	0	0	0	0	0.000324975	0	-0.000535946	0	0	0
0.308333	42.9065	59.1828	10.9274	0.373181	0	-0.29434	0	-1.64513	0	0	0	0	0.00032493	0	-0.000535971	0	0	0
0.316667	19.2573	26.2181	6.47114	0.444586	0	-0.238178	0	-1.37254	0	0	0	0	0.000324883	0	-0.000535996	0	0	0
0.325	8.23894	12.6691	4.29394	0.690653	0	-0.116761	0	-1.21045	0	0	0	0	0.000324835	0	-0.000536021	0	0	0
0.333333	0	0	0	0.000324758	0	-0.000536058	0	0	0	0	0	0	0.000324786	0	-0.000536048	0	0	0
0.341667	0	0	0	0.000324706	0	-0.000536086	0	0	0	0	0	0	0.000324736	0	-0.000536075	0	0	0
0.35	0	0	0	0.000324653	0	-0.000536114	0	0	0	0	0	0	0.000324684	0	-0.000536102	0	0	0
0.358333	0	0	0	0.000324599	0	-0.000536143	0	0	0	0	0	0	0.000324632	0	-0.000536131	0	0	0
0.366667	0	0	0	0.000324544	0	-0.000536172	0	0	0	0	0	0	0.000324578	0	-0.000536159	0	0	0
0.375	0	0	0	0.000324487	0	-0.000536202	0	0	0	0	0	0	0.000324523	0	-0.000536189	0	0	0
0.383333	0	0	0	0.00032443	0	-0.000536233	0	0	0	0	0	0	0.000324468	0	-0.000536219	0	0	0
0.391667	0	0	0	0.000324371	0	-0.000536264	0	0	0	0	0	0	0.000324411	0	-0.00053625	0	0	0
0.4	0	0	0	0.000324311	0	-0.000536296	0	0	0	-1.8721	18.1576	-1.71157	0.795986	0	-0.227386	0	-0.31109	0
0.408333	0	0	0	0.00032425	0	-0.000536328	0	0	0	-15.8355	43.5696	-4.60105	0.850044	0	-0.365338	0	-0.365178	0
0.416667	0	0	0	0.000324188	0	-0.000536362	0	0	0	-45.6699	119.898	-6.56667	0.905172	0	-0.425436	0	-0.655248	0
0.425	0	0	0	0.000324125	0	-0.000536395	0	0	0	-92.0575	297.912	-3.86088	0.934118	0	-0.436114	0	-1.06916	0
0.433333	0	0	0	0.000324061	0	-0.000536429	0	0	0	-141.425	591.188	5.96207	0.944576	0	-0.431702	0	-1.39497	0
0.441667	0	0	0	0.000323995	0	-0.000536464	0	0	0	-173.402	914.415	18.3211	0.942159	0	-0.424522	0	-1.41004	0
0.45	0	0	0	0.000323929	0	-0.0005365	0	0	0	-188.419	1151.62	21.601	0.928766	0	-0.420685	0	-1.02623	0
0.458333	0	0	0	0.000323861	0	-0.000536536	0	0	0	-205.559	1289.18	10.3419	0.906243	0	-0.423436	0	-0.403654	0
0.466667	0	0	0	0.000323793	0	-0.000536572	0	0	0	-227.136	1388.84	-2.61167	0.879705	0	-0.429902	-0	0.087198	-0
0.475	0	0	0	0.000323723	0	-0.000536609	0	0	0	-235.996	1495.27	2.16813	0.853452	0	-0.433291	-0	0.077832	-0
0.483333	0	0	0	0.000323652	0	-0.000536647	0	0	0	-217.414	1602.94	26.1955	0.826149	0	-0.432342	0	-0.562585	0
0.491667	0	0	0	0.000323581	0	-0.000536685	0	0	0	-169.618	1679.73	50.232	0.795176	0	-0.431597	0	-1.66605	0
0.5	0	0	0	0.000323508	0	-0.000536724	0	0	0	-102.354	1705.12	57.7022	0.759944	0	-0.433938	0	-2.9087	0
0.508333	0	0	0	0.000323434	0	-0.000536763	0	0	0	-30.2957	1684.52	51.8516	0.722211	0	-0.437437	0	-3.99562	0
0.516667	0	0	0	0.000323359	0	-0.000536803	0	0	0	35.5373	1632.8	45.7166	0.685017	0	-0.438847	0	-4.73219	0
0.525	0	0	0	0.000323284	0	-0.000536843	0	0	0	95.8624	1552.69	43.276	0.650103	0	-0.437898	0	-4.9934	0
0.533333	0	0	0	0.000323207	0	-0.000536884	0	0	0	154.917	1436.2	37.8921	0.61681	0	-0.436716	0	-4.70233	0
0.541667	0	0	0	0.000323129	0	-0.000536925	0	0	0	207.98	1278.56	24.9693	0.583719	0	-0.436583	0	-3.8663	0
0.55	0	0	0	0.000323051	0	-0.000536967	0	0	0	244.367	1086.39	8.05187	0.551112	0	-0.43658	0	-2.61746	0
0.558333	0	0	0	0.000322971	0	-0.00053701	0	0	0	256.176	873.299	-7.00027	0.520363	0	-0.435261	0	-1.1995	0
0.566667	0	0	0	0.000322891	0	-0.000537052	0	0	0	243.544	655.229	-18.0224	0.491194	0	-0.432331	-0	0.094464	-0
0.575	0	0	0	0.000322809	0	-0.000537096	0	0	0	210.063	450.621	-25.4513	0.461835	0	-0.42922	-0	0.993735	-0
0.583333	0	0	0	0.000322727	0	-0.00053714	0	0	0	160.3	277.87	-28.7296	0.431242	0	-0.428255	-0	1.31019	-0
0.591667	0	0	0	0.000322644	0	-0.000537184	0	0	0	103.494	150.31	-26.4771	0.40399	0	-0.428545	-0	0.983986	-0
0.6	0	0	0	0.00032256	0	-0.000537229	0	0	0	54.792	71.4164	-19.4622	0.397241	0	-0.417691	-0	0.104097	-0
0.608333	0	0	0	0.000322475	0	-0.000537274	0	0	0	25.7072	33.2769	-11.1643	0.463614	0	-0.360827	0	-1.11438	0
0.616667	0	0	0	0.000322389	0	-0.000537319	0	0	0	12.0769	18.6583	-4.83962	0.645556	0	-0.252798	0	-2.39495	0
0.625	0	0	0	0.000322303	0	-0.000537366	0	0	0	3.66267	11.437	-1.23376	0.79611	0	-0.143111	0	-3.47613	0
0.633333	0	0	0	0.000322216	0	-0.000537412	0	0	0	0	0	0	0.000322315	0	-0.000537375	0	0	0
0.641667	0	0	0	0.000322127	0	-0.000537459	0	0	0	0	0	0	0.00032223	0	-0.000537421	0	0	0
0.65	0	0	0	0.000322039	0	-0.000537506	0	0	0	0	0	0	0.000322143	0	-0.000537468	0	0	0
0.658333	0	0	0	0.000321949	0	-0.000537554	0	0	0	0	0	0	0.000322056	0	-0.000537514	0	0	0
0.666667	0	0	0	0.000321858	0	-0.000537602	0	0	0	0	0	0	0.000321968	0	-0.000537562	0	0	0
0.675	0	0	0	0.000321767	0	-0.000537651	0	0	0	0	0	0	0.00032188	0	-0.000537609	0	0	0
0.683333	0	0	0	0.000321675	0	-0.0005377	0	0	0	0	0	0	0.00032179	0	-0.000537657	0	0	0
0.691667	-1.33534	13.0783	-0.562609	0.578373	0	-0.114689	-0	0.928861	-0	0	0	0	0.0003217	0	-0.000537706	0	0	0
0.7	-8.86539	26.8788	-4.00466	0.785334	0	-0.236838	-0	0.98892	-0	0	0	0	0.000321609	0	-0.000537754	0	0	0
0.708333	-30.1473	74.9447	-9.08609	0.92128	0	-0.299841	-0	0.215485	-0	0	0	0	0.000321518	0	-0.000537804	0	0	0
0.716667	-69.2454	205.215	-13.7974	0.958143	0	-0.31799	0	-1.40816	0	0	0	0	0.000321426	0	-0.000537853	0	0	0
0.725	-120.445	462.461	-14.1902	0.966915	0	-0.321829	0	-3.66693	0	0	0	0	0.000321333	0	-0.000537903	0	0	0
0.733333	-166.8	812.239	-7.24808	0.964597	0	-0.321474	0	-6.09497	0	0	0	0	0.00032124	0	-0.000537953	0	0	0
0.741667	-196.736	1120.14	3.53118	0.953915	0	-0.319871	0	-8.05611	0	0	0	0	0.000321146	0	-0.000538003	0	0	0
0.75	-221.464	1293.39	7.15598	0.93708	0	-0.318396	0	-8.93235	0	0	0	0	0.000321051	0	-0.000538054	0	0	0
0.758333	-252.007	1374.86	-4.69325	0.916218	0	-0.317998	0	-8.34997	0	0	0	0	0.000320956	0	-0.000538105	0	0	0
0.766667	-271.633	1451.03	-27.0634	0.891579	0	-0.318107	0	-6.31439	0	0	0	0	0.000320861	0	-0.000538157	0	0	0
0.775	-259.586	1557.02	-46.7433	0.862246	0	-0.316981	0	-3.1718	0	0	0	0	0.000320764	0	-0.000538208	0	0	0
0.783333	-217.031	1668.87	-57.0155	0.829779	0	-0.314475	-0	0.554289	-0	0	0	0	0.000320668	0	-0.00053826	0	0	0
0.791667	-158.909	1743.86	-62.4706	0.796759	0	-0.312002	-0	4.32335	-0	0	0	0	0.00032057	0	-0.000538313	0	0	0
0.8	-96.5352	1758.49	-69.5493	0.7637	0	-0.31049	-0	7.65602	-0	0	0	0	0.000320473	0	-0.000538365	0	0	0
0.808333	-30.4076	1718.1	-77.4956	0.730102	0	-0.309499	-0	10.1558	-0	0	0	0	0.000320374	0	-0.000538418	0	0	0
0.816667	39.0939	1639.85	-80.5469	0.696267	0	-0.308163	-0	11.5364	-0	0	0	0	0.000320276	0	-0.000538471	0	0	0
0.825	105.426	1532.77	-75.3447	0.662905	0	-0.306493	-0	11.6709	-0	0	0	0	0.000320177	0	-0.000538524	0	0	0
0.833333	161.427	1397.76	-63.2412	0.630404	0	-0.305306	-0	10.6258	-0	0	0	0	0.000320077	0	-0.000538578	0	0	0
0.841667	201.709	1233.78	-47.1217	0.598072	0	-0.305172	-0	8.65198	-0	0	0	0	0.000319977	0	-0.000538631	0	0	0
0.85	225.56	1043.68	-29.0579	0.564285	0	-0.305886	-0	6.13098	-0	0	0	0	0.000319876	0	-0.000538685	0	0	0
0.858333	233.958	837.396	-10.9943	0.529444	0	-0.306753	-0	3.49718	-0	0	0	0	0.000319776	0	-0.00053874	0	0	0
0.866667	225.437	629.336	4.3389	0.497162	0	-0.30674	-0	1.15149	-0	0	0	0	0.000319674	0	-0.000538794	0	0	0
0.875	197.793	436.184	14.1361	0.470541	0	-0.304936	0	-0.61816	0	0	0	0	0.000319573	0	-0.000538849	0	0	0
0.883333	154.186	274.629	17.1709	0.449488	0	-0.300955	0	-1.6903	0	0	0	0	0.000319471	0	-0.000538903	0	0	0
0.891667	104.215	155.473	14.8284	0.435044	0	-0.293348	0	-2.11812	0	0	0	0	0.000319368	0	-0.000538958	0	0	0
0.9	58.9111	79.1946	10.2999	0.434389	0	-0.276186	0	-2.08665	0	0	0	0	0.000319266	0	-0.000539013	0	0	0
0.908333	26.7421	37.4654	6.41787	0.455419	0	-0.234606	0	-1.83547	0	0	0	0	0.000319163	0	-0.000539069	0	0	0
0.916667	9.68588	17.9152	4.20139	0.498375	0	-0.148257	0	-1.57803	0	0	0	0	0.00031906	0	-0.000539124	0	0	0
0.925	0	0	0	0.00031876	0	-0.000539252	0	0	0	0	0	0	0.000318956	0	-0.00053918	0	0	0
0.933333	0	0	0	0.000318653	0	-0.000539309	0	0	0	0	0	0	0.000318853	0	-0.000539235	0	0	0
0.941667	0	0	0	0.000318546	0	-0.000539366	0	0	0	0	0	0	0.000318749	0	-0.000539291	0	0	0
0.95	0	0	0	0.000318439	0	-0.000539423	0	0	0	0	0	0	0.000318645	0	-0.000539347	0	0	0
0.958333	0	0	0	0.000318332	0	-0.00053948	0	0	0	0	0	0	0.00031854	0	-0.000539403	0	0	0
0.966667	0	0	0	0.000318224	0	-0.000539538	0	0	0	0	0	0	0.000318436	0	-0.000539459	0	0	0
0.975	0	0	0	0.000318116	0	-0.000539595	0	0	0	0	0	0	0.000318331	0	-0.000539516	0	0	0
0.983333	0	0	0	0.000318009	0	-0.000539652	0	0	0	0	0	0	0.000318226	0	-0.000539572	0	0	0
0.991667	0	0	0	0.000317901	0	-0.00053971	0	0	0	-1.37341	13.9505	-1.23958	0.790948	0	-0.181563	-0	0.599663	-0
1	0	0	0	0.000317793	0	-0.000539768	0	0	0	-10.0592	34.4099	-4.56907	0.943628	0	-0.35669	-0	1.03608	-0
